<svg id="visual" viewBox="0 0 960 540" width="960" height="540" xmlns="http://www.w3.org/2000/svg" xmlns:xlink="http://www.w3.org/1999/xlink" version="1.1"><g stroke-width="1" stroke-linejoin="bevel"><path d="M493.3 271L455.7 302L564.3 332Z" fill="#1d4e6b" stroke="#1d4e6b"></path><path d="M455.7 302L527.3 411L564.3 332Z" fill="#0c2435" stroke="#0c2435"></path><path d="M455.7 302L421.7 358L527.3 411Z" fill="#1d4e6b" stroke="#1d4e6b"></path><path d="M421.7 358L421.7 430L527.3 411Z" fill="#15384f" stroke="#15384f"></path><path d="M493.3 154L456.7 186L493.3 271Z" fill="#205a7a" stroke="#205a7a"></path><path d="M493.3 271L456.7 186L455.7 302Z" fill="#297ea6" stroke="#297ea6"></path><path d="M455.7 302L348 270L421.7 358Z" fill="#15384f" stroke="#15384f"></path><path d="M660 373L641 249L564.3 332Z" fill="#246688" stroke="#246688"></path><path d="M564.3 332L641 249L493.3 271Z" fill="#277297" stroke="#277297"></path><path d="M527.3 411L660 373L564.3 332Z" fill="#081a28" stroke="#081a28"></path><path d="M456.7 186L348 270L455.7 302Z" fill="#112e42" stroke="#112e42"></path><path d="M421.7 358L317 384L421.7 430Z" fill="#246688" stroke="#246688"></path><path d="M641 249L493.3 154L493.3 271Z" fill="#297ea6" stroke="#297ea6"></path><path d="M456.7 186L316 212L348 270Z" fill="#297ea6" stroke="#297ea6"></path><path d="M527.3 411L635 459L660 373Z" fill="#112e42" stroke="#112e42"></path><path d="M511.3 540L635 459L527.3 411Z" fill="#1d4e6b" stroke="#1d4e6b"></path><path d="M348 270L317 384L421.7 358Z" fill="#205a7a" stroke="#205a7a"></path><path d="M727.7 382L708.7 300L660 373Z" fill="#0c2435" stroke="#0c2435"></path><path d="M660 373L708.7 300L641 249Z" fill="#112e42" stroke="#112e42"></path><path d="M506.3 61L465.7 126L493.3 154Z" fill="#277297" stroke="#277297"></path><path d="M493.3 154L465.7 126L456.7 186Z" fill="#00101c" stroke="#00101c"></path><path d="M433.7 540L511.3 540L421.7 430Z" fill="#277297" stroke="#277297"></path><path d="M421.7 430L511.3 540L527.3 411Z" fill="#19435d" stroke="#19435d"></path><path d="M663 149L602 127L641 249Z" fill="#1d4e6b" stroke="#1d4e6b"></path><path d="M641 249L602 127L493.3 154Z" fill="#19435d" stroke="#19435d"></path><path d="M465.7 126L316 212L456.7 186Z" fill="#112e42" stroke="#112e42"></path><path d="M348 270L239.3 339L317 384Z" fill="#297ea6" stroke="#297ea6"></path><path d="M327 540L433.7 540L421.7 430Z" fill="#00101c" stroke="#00101c"></path><path d="M635 459L727.7 382L660 373Z" fill="#1d4e6b" stroke="#1d4e6b"></path><path d="M732.7 181L663 149L641 249Z" fill="#112e42" stroke="#112e42"></path><path d="M239.3 339L301 445L317 384Z" fill="#277297" stroke="#277297"></path><path d="M317 384L301 445L421.7 430Z" fill="#277297" stroke="#277297"></path><path d="M511.3 540L658 540L635 459Z" fill="#19435d" stroke="#19435d"></path><path d="M635 459L751.7 481L727.7 382Z" fill="#246688" stroke="#246688"></path><path d="M569.3 0L506.3 61L602 127Z" fill="#19435d" stroke="#19435d"></path><path d="M602 127L506.3 61L493.3 154Z" fill="#246688" stroke="#246688"></path><path d="M286 67L241.3 209L316 212Z" fill="#081a28" stroke="#081a28"></path><path d="M708.7 300L732.7 181L641 249Z" fill="#277297" stroke="#277297"></path><path d="M634 0L569.3 0L602 127Z" fill="#0c2435" stroke="#0c2435"></path><path d="M886.3 249L732.7 181L708.7 300Z" fill="#0c2435" stroke="#0c2435"></path><path d="M241.3 209L239.3 339L348 270Z" fill="#19435d" stroke="#19435d"></path><path d="M301 445L327 540L421.7 430Z" fill="#15384f" stroke="#15384f"></path><path d="M245.3 470L327 540L301 445Z" fill="#0c2435" stroke="#0c2435"></path><path d="M658 540L751.7 481L635 459Z" fill="#0c2435" stroke="#0c2435"></path><path d="M727.7 382L889.3 328L708.7 300Z" fill="#081a28" stroke="#081a28"></path><path d="M286 67L316 212L465.7 126Z" fill="#205a7a" stroke="#205a7a"></path><path d="M316 212L241.3 209L348 270Z" fill="#0c2435" stroke="#0c2435"></path><path d="M239.3 339L245.3 470L301 445Z" fill="#19435d" stroke="#19435d"></path><path d="M658 540L742.7 540L751.7 481Z" fill="#0c2435" stroke="#0c2435"></path><path d="M634 0L602 127L663 149Z" fill="#205a7a" stroke="#205a7a"></path><path d="M506.3 61L425.7 0L465.7 126Z" fill="#246688" stroke="#246688"></path><path d="M241.3 209L179.3 252L239.3 339Z" fill="#0c2435" stroke="#0c2435"></path><path d="M239.3 339L104.7 474L245.3 470Z" fill="#297ea6" stroke="#297ea6"></path><path d="M569.3 0L425.7 0L506.3 61Z" fill="#246688" stroke="#246688"></path><path d="M241.3 209L133.7 188L179.3 252Z" fill="#0c2435" stroke="#0c2435"></path><path d="M357 0L286 67L465.7 126Z" fill="#205a7a" stroke="#205a7a"></path><path d="M782.7 58L634 0L663 149Z" fill="#1d4e6b" stroke="#1d4e6b"></path><path d="M137.7 540L229.3 540L245.3 470Z" fill="#19435d" stroke="#19435d"></path><path d="M245.3 470L229.3 540L327 540Z" fill="#205a7a" stroke="#205a7a"></path><path d="M878.3 540L835.3 451L751.7 481Z" fill="#205a7a" stroke="#205a7a"></path><path d="M751.7 481L835.3 451L727.7 382Z" fill="#00101c" stroke="#00101c"></path><path d="M425.7 0L357 0L465.7 126Z" fill="#1d4e6b" stroke="#1d4e6b"></path><path d="M835.3 451L889.3 328L727.7 382Z" fill="#297ea6" stroke="#297ea6"></path><path d="M732.7 181L782.7 58L663 149Z" fill="#297ea6" stroke="#297ea6"></path><path d="M887.3 159L782.7 58L732.7 181Z" fill="#0c2435" stroke="#0c2435"></path><path d="M889.3 328L886.3 249L708.7 300Z" fill="#1d4e6b" stroke="#1d4e6b"></path><path d="M286 67L190.3 87L241.3 209Z" fill="#15384f" stroke="#15384f"></path><path d="M230.3 0L190.3 87L286 67Z" fill="#277297" stroke="#277297"></path><path d="M190.3 87L133.7 188L241.3 209Z" fill="#0c2435" stroke="#0c2435"></path><path d="M179.3 252L97.7 322L239.3 339Z" fill="#19435d" stroke="#19435d"></path><path d="M133.7 188L108.7 257L179.3 252Z" fill="#1d4e6b" stroke="#1d4e6b"></path><path d="M108.7 257L97.7 322L179.3 252Z" fill="#297ea6" stroke="#297ea6"></path><path d="M886.3 249L887.3 159L732.7 181Z" fill="#00101c" stroke="#00101c"></path><path d="M960 185L887.3 159L886.3 249Z" fill="#1d4e6b" stroke="#1d4e6b"></path><path d="M891.3 0L766.7 0L782.7 58Z" fill="#19435d" stroke="#19435d"></path><path d="M782.7 58L766.7 0L634 0Z" fill="#112e42" stroke="#112e42"></path><path d="M104.7 474L137.7 540L245.3 470Z" fill="#297ea6" stroke="#297ea6"></path><path d="M742.7 540L878.3 540L751.7 481Z" fill="#297ea6" stroke="#297ea6"></path><path d="M835.3 451L960 342L889.3 328Z" fill="#19435d" stroke="#19435d"></path><path d="M357 0L230.3 0L286 67Z" fill="#205a7a" stroke="#205a7a"></path><path d="M190.3 87L112.7 128L133.7 188Z" fill="#00101c" stroke="#00101c"></path><path d="M97.7 322L104.7 474L239.3 339Z" fill="#00101c" stroke="#00101c"></path><path d="M0 264L0 354L97.7 322Z" fill="#00101c" stroke="#00101c"></path><path d="M0 188L0 264L108.7 257Z" fill="#205a7a" stroke="#205a7a"></path><path d="M145.7 0L112.7 128L190.3 87Z" fill="#1d4e6b" stroke="#1d4e6b"></path><path d="M887.3 159L876.3 79L782.7 58Z" fill="#15384f" stroke="#15384f"></path><path d="M960 489L960 342L835.3 451Z" fill="#00101c" stroke="#00101c"></path><path d="M889.3 328L960 270L886.3 249Z" fill="#15384f" stroke="#15384f"></path><path d="M887.3 159L960 89L876.3 79Z" fill="#246688" stroke="#246688"></path><path d="M960 342L960 270L889.3 328Z" fill="#112e42" stroke="#112e42"></path><path d="M960 270L960 185L886.3 249Z" fill="#205a7a" stroke="#205a7a"></path><path d="M878.3 540L960 489L835.3 451Z" fill="#246688" stroke="#246688"></path><path d="M230.3 0L145.7 0L190.3 87Z" fill="#205a7a" stroke="#205a7a"></path><path d="M878.3 540L960 540L960 489Z" fill="#205a7a" stroke="#205a7a"></path><path d="M960 89L891.3 0L876.3 79Z" fill="#00101c" stroke="#00101c"></path><path d="M876.3 79L891.3 0L782.7 58Z" fill="#246688" stroke="#246688"></path><path d="M97.7 322L0 425L104.7 474Z" fill="#00101c" stroke="#00101c"></path><path d="M104.7 474L0 540L137.7 540Z" fill="#081a28" stroke="#081a28"></path><path d="M0 264L97.7 322L108.7 257Z" fill="#00101c" stroke="#00101c"></path><path d="M108.7 257L133.7 188L0 188Z" fill="#112e42" stroke="#112e42"></path><path d="M960 185L960 89L887.3 159Z" fill="#00101c" stroke="#00101c"></path><path d="M0 188L133.7 188L112.7 128Z" fill="#15384f" stroke="#15384f"></path><path d="M0 354L0 425L97.7 322Z" fill="#15384f" stroke="#15384f"></path><path d="M0 51L0 188L112.7 128Z" fill="#00101c" stroke="#00101c"></path><path d="M0 425L0 540L104.7 474Z" fill="#205a7a" stroke="#205a7a"></path><path d="M960 89L960 0L891.3 0Z" fill="#277297" stroke="#277297"></path><path d="M145.7 0L0 51L112.7 128Z" fill="#0c2435" stroke="#0c2435"></path><path d="M145.7 0L0 0L0 51Z" fill="#205a7a" stroke="#205a7a"></path></g></svg>